<svg width="40" height="40" viewBox="0 0 40 40" fill="none" xmlns="http://www.w3.org/2000/svg">
<circle cx="20" cy="20" r="20" fill="#DE3A3A"/>
<path d="M16.3853 18.7842C16.3006 18.8151 16.2461 18.8961 16.2461 18.9862V20.586C16.2461 20.9888 16.0614 21.3692 15.7449 21.6183L13.997 22.994C13.7536 23.1855 13.5665 23.3109 13.2572 23.328C12.8505 23.3505 12.3849 23.1266 12.1049 22.8308L11.539 22.2331C11.0489 21.7154 10.6483 21.0547 10.7889 20.3558C10.8981 19.8133 14.4998 16.6667 19.6296 16.6667C24.7594 16.6667 28.3611 19.8133 28.4703 20.3558C28.6109 21.0547 28.2104 21.7154 27.7203 22.2331L27.1544 22.8308C26.8744 23.1266 26.4087 23.3505 26.0021 23.328C25.6927 23.3109 25.5057 23.1855 25.2622 22.994L23.5143 21.6183C23.1978 21.3692 23.0131 20.9888 23.0131 20.586V18.9827C23.0131 18.8943 22.9597 18.8142 22.8775 18.7818C20.3111 17.7696 17.6349 18.3286 16.3853 18.7842Z" fill="white"/>
</svg>
