<svg width="18" height="18" viewBox="0 0 18 18" fill="none" xmlns="http://www.w3.org/2000/svg">
<path d="M1.57058 9.22737C1.26776 8.94474 0.793172 8.96111 0.510546 9.26392C0.227921 9.56674 0.244286 10.0413 0.547099 10.324L1.57058 9.22737ZM4.01369 12.5335L3.50196 13.0818C3.79011 13.3508 4.23728 13.3508 4.52543 13.0818L4.01369 12.5335ZM12.2819 5.84242C12.5847 5.55979 12.6011 5.0852 12.3185 4.78239C12.0359 4.47958 11.5613 4.46321 11.2585 4.74584L12.2819 5.84242ZM9.18469 12.7059L8.67296 13.2542C8.96111 13.5231 9.40828 13.5231 9.69643 13.2542L9.18469 12.7059ZM17.4529 6.01479C17.7557 5.73216 17.7721 5.25757 17.4895 4.95476C17.2069 4.65194 16.7323 4.63558 16.4295 4.9182L17.4529 6.01479ZM8.77304 11.2958C8.47023 11.0131 7.99564 11.0295 7.71301 11.3323C7.43038 11.6351 7.44675 12.1097 7.74956 12.3924L8.77304 11.2958ZM0.547099 10.324L3.50196 13.0818L4.52543 11.9852L1.57058 9.22737L0.547099 10.324ZM4.52543 13.0818L12.2819 5.84242L11.2585 4.74584L3.50196 11.9852L4.52543 13.0818ZM9.69643 13.2542L17.4529 6.01479L16.4295 4.9182L8.67296 12.1576L9.69643 13.2542ZM9.69643 12.1576L8.77304 11.2958L7.74956 12.3924L8.67296 13.2542L9.69643 12.1576Z" fill="#48A938"/>
</svg>
