<svg width="40" height="40" viewBox="0 0 40 40" fill="none" xmlns="http://www.w3.org/2000/svg">
<circle cx="20" cy="20" r="20" fill="#DE3A3A"/>
<path d="M16.4341 18.7666C16.3195 18.8075 16.2461 18.9168 16.2461 19.0384V20.3628C16.2461 20.9065 15.9968 21.4201 15.5695 21.7563L13.997 22.994C13.7536 23.1855 13.5665 23.3109 13.2572 23.328V23.328C12.8506 23.3505 12.3849 23.1266 12.1049 22.8308L11.539 22.2331C11.0489 21.7154 10.6483 21.0547 10.7889 20.3558V20.3558C10.8981 19.8133 14.4999 16.6667 19.6296 16.6667C24.7594 16.6667 28.3612 19.8133 28.4703 20.3558V20.3558C28.6109 21.0547 28.2104 21.7154 27.7203 22.2331L27.1544 22.8308C26.8744 23.1266 26.4087 23.3505 26.0021 23.328V23.328C25.6928 23.3109 25.5057 23.1855 25.2622 22.994L23.6897 21.7563C23.2625 21.4201 23.0131 20.9065 23.0131 20.3628V19.0338C23.0131 18.9145 22.9413 18.8062 22.83 18.7632C20.3111 17.7892 17.6956 18.3174 16.4341 18.7666Z" fill="white"/>
</svg>
