<svg width="18" height="18" viewBox="0 0 18 18" fill="none" xmlns="http://www.w3.org/2000/svg">
<path fill-rule="evenodd" clip-rule="evenodd" d="M4.23529 7.34191C4.23529 7.0454 4.48488 6.80475 4.79116 6.80475H5.74459L11.4616 12.6408V14.0726C11.4616 14.8047 10.9057 15.0797 10.3498 14.5426L6.70224 11.4696H4.79116C4.48488 11.4696 4.23529 11.2279 4.23529 10.9324V7.34191Z" fill="#BDC1C4"/>
<path d="M4.89809 3.17835C4.79636 3.19614 4.70178 3.24099 4.62498 3.30786C4.54818 3.37473 4.4922 3.46098 4.46333 3.5569C4.43446 3.65282 4.43384 3.75463 4.46154 3.85087C4.48924 3.94712 4.54417 4.03399 4.62015 4.10173L13.8359 13.0073C13.8849 13.0658 13.9461 13.1137 14.0156 13.1478C14.085 13.1819 14.161 13.2016 14.2388 13.2055C14.3166 13.2094 14.3944 13.1974 14.4671 13.1704C14.5398 13.1434 14.6058 13.102 14.6609 13.0487C14.7159 12.9955 14.7588 12.9317 14.7867 12.8614C14.8146 12.7911 14.8269 12.716 14.8228 12.6408C14.8187 12.5656 14.7983 12.4921 14.7629 12.4251C14.7275 12.358 14.678 12.2989 14.6174 12.2515L12.4023 10.1115V4.25064C12.4023 3.21211 11.3299 3.2228 10.5471 3.86496L8.0264 5.88285L5.40226 3.34594C5.34488 3.28689 5.27443 3.24114 5.19617 3.21211C5.11791 3.18309 5.03387 3.17155 4.95034 3.17835C4.93293 3.17756 4.91549 3.17756 4.89809 3.17835Z" fill="#BDC1C4"/>
</svg>
