<svg width="18" height="18" viewBox="0 0 18 18" fill="none" xmlns="http://www.w3.org/2000/svg">
<path d="M3.67722 9.28387C3.36883 9.00734 2.89466 9.03317 2.61813 9.34155C2.3416 9.64994 2.36742 10.1241 2.67581 10.4006L3.67722 9.28387ZM6.37006 12.7059L5.86936 13.2643C6.1519 13.5176 6.57916 13.52 6.8645 13.2698L6.37006 12.7059ZM15.318 5.85807C15.6295 5.58499 15.6606 5.11114 15.3875 4.79969C15.1144 4.48823 14.6406 4.45712 14.3291 4.73019L15.318 5.85807ZM2.67581 10.4006L5.86936 13.2643L6.87076 12.1475L3.67722 9.28387L2.67581 10.4006ZM6.8645 13.2698L15.318 5.85807L14.3291 4.73019L5.87562 12.142L6.8645 13.2698Z" fill="#48A938"/>
</svg>
