<svg width="18" height="18" viewBox="0 0 18 18" fill="none" xmlns="http://www.w3.org/2000/svg">
<path d="M3.67716 9.28387C3.36877 9.00734 2.8946 9.03317 2.61807 9.34155C2.34153 9.64994 2.36736 10.1241 2.67575 10.4006L3.67716 9.28387ZM6.37 12.7059L5.8693 13.2643C6.15184 13.5176 6.5791 13.52 6.86444 13.2698L6.37 12.7059ZM15.318 5.85807C15.6294 5.58499 15.6605 5.11114 15.3874 4.79969C15.1144 4.48823 14.6405 4.45712 14.3291 4.73019L15.318 5.85807ZM2.67575 10.4006L5.8693 13.2643L6.8707 12.1475L3.67716 9.28387L2.67575 10.4006ZM6.86444 13.2698L15.318 5.85807L14.3291 4.73019L5.87556 12.142L6.86444 13.2698Z" fill="#48A938"/>
</svg>
