<svg width="58" height="58" viewBox="0 0 58 58" fill="none" xmlns="http://www.w3.org/2000/svg">
<g filter="url(#filter0_b_482_20272)">
<circle cx="29" cy="29" r="29" fill="#D4D4D4" fill-opacity="0.2"/>
</g>
<path d="M30.4935 39.4496V41.3937C30.4935 42.199 29.8248 42.8518 29 42.8518C28.1751 42.8518 27.5064 42.199 27.5064 41.3937V39.4496V39.3487C22.3019 38.6393 18.2963 34.2763 18.2963 29C18.2963 28.6355 18.5203 27.9064 19.4164 27.9064C20.3125 27.9064 20.5366 28.6355 20.5366 29C20.5366 33.5632 24.3258 37.2625 29 37.2625C30.5302 37.2625 31.9656 36.866 33.2042 36.1726C34.6781 35.3474 35.8733 34.1017 36.6183 32.6032C37.1597 31.5142 37.4634 30.2917 37.4634 29C37.4634 28.6355 37.6874 27.9064 38.5835 27.9064C39.4796 27.9064 39.7037 28.6355 39.7037 29C39.7037 30.9014 39.1835 32.6841 38.2745 34.22C37.3125 35.8456 35.9149 37.1947 34.2375 38.1153C33.1017 38.7386 31.8376 39.1655 30.4935 39.3487L30.4935 39.4496Z" fill="white"/>
<path d="M29 15.1481C31.887 15.1481 34.2274 17.433 34.2274 20.2514V29.6146C34.1272 32.347 31.8267 34.5321 29.0034 34.5321C26.1164 34.5321 23.776 32.2473 23.776 29.4288V20.0656C23.8761 17.3332 26.1767 15.1481 29 15.1481Z" fill="white"/>
<defs>
<filter id="filter0_b_482_20272" x="-27" y="-27" width="112" height="112" filterUnits="userSpaceOnUse" color-interpolation-filters="sRGB">
<feFlood flood-opacity="0" result="BackgroundImageFix"/>
<feGaussianBlur in="BackgroundImage" stdDeviation="13.5"/>
<feComposite in2="SourceAlpha" operator="in" result="effect1_backgroundBlur_482_20272"/>
<feBlend mode="normal" in="SourceGraphic" in2="effect1_backgroundBlur_482_20272" result="shape"/>
</filter>
</defs>
</svg>
