<svg width="18" height="18" viewBox="0 0 18 18" fill="none" xmlns="http://www.w3.org/2000/svg">
<path fill-rule="evenodd" clip-rule="evenodd" d="M10.9934 2.24046C11.4448 2.02477 12.0185 2.27406 12.1943 2.74285C12.4186 3.34102 12.786 4.09531 13.3465 4.65638C13.9069 5.21745 14.6603 5.5853 15.2578 5.80983C15.7261 5.9858 15.9751 6.56019 15.7597 7.01209C15.4693 7.62118 15.1547 8.41606 15.1547 9.00095C15.1547 9.61397 15.5003 10.4576 15.8014 11.0763C16.008 11.5009 15.8031 12.0381 15.371 12.2276C14.7579 12.4964 13.9429 12.9294 13.3465 13.5265C12.8046 14.0691 12.4431 14.7471 12.217 15.2898C12.027 15.746 11.4592 15.9851 11.0141 15.7714C10.4031 15.4779 9.59764 15.1558 9.00674 15.1558C8.3962 15.1558 7.55686 15.4996 6.93944 15.8003C6.51348 16.0078 5.9571 15.8052 5.74977 15.3788C5.47934 14.8226 5.05816 14.0991 4.48621 13.5265C3.90341 12.9431 3.16407 12.5163 2.60455 12.2463C2.18773 12.0451 1.99582 11.5183 2.19946 11.1023C2.50343 10.4814 2.85882 9.62259 2.85882 9.00095C2.85882 8.40939 2.537 7.60305 2.2439 6.99135C2.03038 6.54573 2.26922 5.97729 2.72488 5.78708C3.26706 5.56075 3.94431 5.19889 4.48621 4.65638C5.08266 4.05927 5.51515 3.24331 5.7837 2.62959C5.97299 2.19701 6.5096 1.99189 6.93368 2.19873C7.55168 2.50016 8.39441 2.84614 9.00674 2.84614C9.59098 2.84614 10.385 2.53117 10.9934 2.24046ZM12.0949 6.61731C11.8965 6.41052 11.5748 6.41052 11.3764 6.61731L7.92206 10.2256L6.60127 8.84883C6.40289 8.64204 6.08124 8.64204 5.88286 8.84883C5.68448 9.05562 5.68448 9.3909 5.88286 9.59769L7.60283 11.3905C7.70924 11.4964 7.98302 11.6447 8.22686 11.3905L12.0949 7.35864C12.2932 7.15185 12.2932 6.8241 12.0949 6.61731Z" fill="#4B91CA"/>
</svg>
