<svg width="58" height="58" viewBox="0 0 58 58" fill="none" xmlns="http://www.w3.org/2000/svg">
<circle cx="29" cy="29" r="29" fill="white"/>
<path d="M32.145 36.1542L18.9134 22.9225L16.42 20.5L16.25 20.2167C15.8107 20.6095 15.4579 21.0895 15.214 21.6261C14.9701 22.1626 14.8405 22.744 14.8334 23.3333V34.6667C14.8334 35.7938 15.2811 36.8748 16.0782 37.6719C16.8752 38.4689 17.9562 38.9167 19.0834 38.9167H31.8334C32.6721 38.9181 33.4918 38.6663 34.185 38.1942L32.145 36.1542Z" fill="#222222"/>
<path d="M41.75 22.1291C41.3196 21.9353 40.8417 21.8723 40.3758 21.9479C39.9098 22.0234 39.4763 22.2343 39.1292 22.5541L36.0834 25.3875V23.3333C36.0834 22.2061 35.6356 21.1251 34.8386 20.3281C34.0415 19.5311 32.9605 19.0833 31.8334 19.0833H23.0925L24.92 20.9108L34.2559 30.2466L37.0892 33.08L39.9225 35.9133C40.1944 36.0152 40.4822 36.068 40.7725 36.0691C41.1097 36.0684 41.4429 35.9959 41.75 35.8566C42.1679 35.6876 42.5258 35.3979 42.7782 35.0244C43.0305 34.6509 43.1658 34.2107 43.1667 33.76V24.2258C43.1658 23.7751 43.0305 23.3349 42.7782 22.9614C42.5258 22.5879 42.1679 22.2982 41.75 22.1291Z" fill="#222222"/>
<path d="M36.0834 34.0858L33.2501 31.2525L23.9142 21.9167L21.0809 19.0833L18.6726 16.6608C18.5405 16.5287 18.3837 16.424 18.2111 16.3525C18.0385 16.281 17.8535 16.2442 17.6667 16.2442C17.4799 16.2442 17.295 16.281 17.1224 16.3525C16.9498 16.424 16.793 16.5287 16.6609 16.6608C16.3941 16.9276 16.2443 17.2894 16.2443 17.6667C16.2443 18.0439 16.3941 18.4057 16.6609 18.6725L17.4259 19.4233L19.9192 21.9167L33.1509 35.1483L35.2192 37.2167L39.3276 41.3392C39.4593 41.4719 39.6159 41.5773 39.7886 41.6493C39.9612 41.7212 40.1464 41.7582 40.3334 41.7582C40.5204 41.7582 40.7056 41.7212 40.8782 41.6493C41.0508 41.5773 41.2075 41.4719 41.3392 41.3392C41.472 41.2075 41.5774 41.0508 41.6493 40.8781C41.7212 40.7055 41.7583 40.5203 41.7583 40.3333C41.7583 40.1463 41.7212 39.9611 41.6493 39.7885C41.5774 39.6159 41.472 39.4592 41.3392 39.3275L36.0834 34.0858Z" fill="#222222"/>
</svg>
