<svg width="44" height="44" viewBox="0 0 44 44" fill="none" xmlns="http://www.w3.org/2000/svg">
<g filter="url(#filter0_b_482_20284)">
<circle cx="22" cy="22" r="22" fill="#D4D4D4" fill-opacity="0.2"/>
</g>
<path d="M18.1912 13.6949L18.6268 17.2064C18.6877 17.6976 18.5202 18.1896 18.1728 18.5397L16.9913 19.7303C16.5286 20.1965 16.4918 20.9401 16.9061 21.4503L18.016 22.8173C18.6961 23.6548 19.496 24.3856 20.3895 24.9859L21.9627 26.0427C22.4816 26.3913 23.1747 26.3099 23.6002 25.8506L24.7328 24.6277C24.9559 24.3868 25.2858 24.2777 25.6071 24.3384L29.4061 25.0562C29.8579 25.1415 30.1853 25.539 30.1853 26.0022V29.2572C30.1853 29.7714 29.7872 30.1976 29.2771 30.1848C23.4629 30.0396 13.3553 26.1546 12.8527 13.8192C12.8311 13.2881 13.2609 12.8518 13.7884 12.8518H17.2434C17.7251 12.8518 18.1314 13.2132 18.1912 13.6949Z" fill="white"/>
<defs>
<filter id="filter0_b_482_20284" x="-27" y="-27" width="98" height="98" filterUnits="userSpaceOnUse" color-interpolation-filters="sRGB">
<feFlood flood-opacity="0" result="BackgroundImageFix"/>
<feGaussianBlur in="BackgroundImage" stdDeviation="13.5"/>
<feComposite in2="SourceAlpha" operator="in" result="effect1_backgroundBlur_482_20284"/>
<feBlend mode="normal" in="SourceGraphic" in2="effect1_backgroundBlur_482_20284" result="shape"/>
</filter>
</defs>
</svg>
