<svg width="44" height="44" viewBox="0 0 44 44" fill="none" xmlns="http://www.w3.org/2000/svg">
<g filter="url(#filter0_b_482_20285)">
<circle cx="22" cy="22" r="22" fill="#D4D4D4" fill-opacity="0.2"/>
</g>
<path d="M17.7397 13.5848C15.5591 13.5848 13.785 15.4658 13.785 17.7779C13.785 20.0899 15.5591 21.971 17.7397 21.971C19.9204 21.971 21.6945 20.0899 21.6945 17.7779C21.6945 15.4658 19.9205 13.5848 17.7397 13.5848Z" fill="white"/>
<path d="M26.731 14.1848C26.7221 14.1848 26.713 14.1849 26.7041 14.1849C25.7889 14.1925 24.9341 14.5789 24.2971 15.273C23.6713 15.9549 23.3311 16.8544 23.3389 17.8059C23.3468 18.7574 23.7018 19.6512 24.3388 20.3227C24.9807 20.9994 25.8311 21.371 26.7361 21.371C26.7452 21.371 26.7543 21.371 26.7634 21.3709C27.6786 21.3634 28.5334 20.9769 29.1704 20.2828C29.7962 19.6009 30.1365 18.7014 30.1286 17.7499C30.1123 15.7781 28.5908 14.1848 26.731 14.1848Z" fill="white"/>
<path d="M26.8979 22.0575H26.5695C25.0401 22.0575 23.6445 22.6389 22.5908 23.5919C22.8544 23.7942 23.1053 24.0147 23.3432 24.2525C24.0448 24.9541 24.5958 25.7717 24.9809 26.6824C25.3279 27.5025 25.5259 28.3666 25.572 29.2566H32.8333V27.9925C32.8333 24.7201 30.1707 22.0575 26.8979 22.0575Z" fill="white"/>
<path d="M24.2999 29.2565C24.1802 27.3273 23.2022 25.6303 21.7427 24.5428C20.6809 23.7514 19.364 23.283 17.9375 23.283H17.5422C14.021 23.283 11.1666 26.1373 11.1666 29.6586V30.4152H24.3126V29.6586C24.3126 29.5236 24.3084 29.3894 24.2999 29.2565Z" fill="white"/>
<defs>
<filter id="filter0_b_482_20285" x="-27" y="-27" width="98" height="98" filterUnits="userSpaceOnUse" color-interpolation-filters="sRGB">
<feFlood flood-opacity="0" result="BackgroundImageFix"/>
<feGaussianBlur in="BackgroundImage" stdDeviation="13.5"/>
<feComposite in2="SourceAlpha" operator="in" result="effect1_backgroundBlur_482_20285"/>
<feBlend mode="normal" in="SourceGraphic" in2="effect1_backgroundBlur_482_20285" result="shape"/>
</filter>
</defs>
</svg>
