<svg width="52" height="52" viewBox="0 0 52 52" fill="none" xmlns="http://www.w3.org/2000/svg">
<circle cx="26" cy="26" r="26" fill="#5ACD30" fill-opacity="0.15"/>
<circle cx="26" cy="26" r="23" fill="#5ACD30" fill-opacity="0.3"/>
<circle cx="26" cy="26" r="20" fill="#5ACD30"/>
<path d="M23.0701 19.6115L23.4052 22.3127C23.452 22.6905 23.3232 23.069 23.056 23.3383L22.1471 24.2541C21.7912 24.6127 21.7629 25.1847 22.0816 25.5772L22.9353 26.6287C23.4584 27.273 24.0738 27.8352 24.7611 28.2969L25.9712 29.1098C26.3704 29.378 26.9035 29.3154 27.2308 28.962L28.1021 28.0214C28.2737 27.8361 28.5275 27.7521 28.7747 27.7989L31.697 28.351C32.0445 28.4166 32.2963 28.7224 32.2963 29.0786V31.5825C32.2963 31.9781 31.9901 32.3059 31.5977 32.2961C27.1252 32.1843 19.3502 29.1959 18.9636 19.7071C18.9469 19.2986 19.2775 18.963 19.6833 18.963H22.341C22.7116 18.963 23.0241 19.241 23.0701 19.6115Z" fill="white"/>
</svg>
