<svg width="18" height="18" viewBox="0 0 18 18" fill="none" xmlns="http://www.w3.org/2000/svg">
<path d="M3.67719 9.28387C3.3688 9.00734 2.89463 9.03317 2.6181 9.34155C2.34157 9.64994 2.36739 10.1241 2.67578 10.4006L3.67719 9.28387ZM6.37003 12.7059L5.86933 13.2643C6.15187 13.5176 6.57913 13.52 6.86447 13.2698L6.37003 12.7059ZM15.318 5.85807C15.6294 5.58499 15.6606 5.11114 15.3875 4.79969C15.1144 4.48823 14.6406 4.45712 14.3291 4.73019L15.318 5.85807ZM2.67578 10.4006L5.86933 13.2643L6.87073 12.1475L3.67719 9.28387L2.67578 10.4006ZM6.86447 13.2698L15.318 5.85807L14.3291 4.73019L5.87559 12.142L6.86447 13.2698Z" fill="#48A938"/>
</svg>
