<svg width="58" height="58" viewBox="0 0 58 58" fill="none" xmlns="http://www.w3.org/2000/svg">
<circle cx="29" cy="29" r="29" fill="#DE3A3A"/>
<path d="M22.8066 26.9509C22.6925 26.9931 22.6185 27.1025 22.6185 27.2241V30.2195C22.6185 30.7631 22.3691 31.2768 21.9419 31.613L18.795 34.0897C18.3811 34.4154 18.0631 34.6284 17.5372 34.6575V34.6575C16.846 34.6958 16.0543 34.3151 15.5783 33.8124L14.6163 32.7962C13.7831 31.9161 13.1022 30.7929 13.3412 29.6048V29.6048C13.5268 28.6826 19.6498 23.3333 28.3704 23.3333C37.091 23.3333 43.214 28.6826 43.3995 29.6048V29.6048C43.6386 30.7929 42.9577 31.9161 42.1245 32.7962L41.1625 33.8124C40.6865 34.3151 39.8948 34.6958 39.2035 34.6575V34.6575C38.6777 34.6284 38.3597 34.4154 37.9458 34.0897L34.7989 31.613C34.3717 31.2768 34.1223 30.7631 34.1223 30.2195V27.2195C34.1223 27.1002 34.0501 26.992 33.9393 26.9478C29.5286 25.188 24.9171 26.1705 22.8066 26.9509Z" fill="white"/>
</svg>
