<svg width="18" height="18" viewBox="0 0 18 18" fill="none" xmlns="http://www.w3.org/2000/svg">
<path d="M1.57056 9.22737C1.26775 8.94474 0.793157 8.96111 0.510531 9.26392C0.227906 9.56674 0.244271 10.0413 0.547084 10.324L1.57056 9.22737ZM4.01368 12.5335L3.50194 13.0818C3.7901 13.3508 4.23726 13.3508 4.52542 13.0818L4.01368 12.5335ZM12.2819 5.84242C12.5847 5.55979 12.6011 5.0852 12.3185 4.78239C12.0358 4.47958 11.5613 4.46321 11.2584 4.74584L12.2819 5.84242ZM9.18468 12.7059L8.67294 13.2542C8.96109 13.5231 9.40826 13.5231 9.69642 13.2542L9.18468 12.7059ZM17.4529 6.01479C17.7557 5.73216 17.7721 5.25757 17.4895 4.95476C17.2068 4.65194 16.7323 4.63558 16.4294 4.9182L17.4529 6.01479ZM8.77302 11.2958C8.47021 11.0131 7.99562 11.0295 7.71299 11.3323C7.43037 11.6351 7.44673 12.1097 7.74955 12.3924L8.77302 11.2958ZM0.547084 10.324L3.50194 13.0818L4.52542 11.9852L1.57056 9.22737L0.547084 10.324ZM4.52542 13.0818L12.2819 5.84242L11.2584 4.74584L3.50194 11.9852L4.52542 13.0818ZM9.69642 13.2542L17.4529 6.01479L16.4294 4.9182L8.67294 12.1576L9.69642 13.2542ZM9.69642 12.1576L8.77302 11.2958L7.74955 12.3924L8.67294 13.2542L9.69642 12.1576Z" fill="#48A938"/>
</svg>
