<svg width="52" height="52" viewBox="0 0 52 52" fill="none" xmlns="http://www.w3.org/2000/svg">
<circle cx="26" cy="26" r="26" fill="#5ACD30" fill-opacity="0.15"/>
<circle cx="26" cy="26" r="23" fill="#5ACD30" fill-opacity="0.3"/>
<circle cx="26" cy="26" r="20" fill="#5ACD30"/>
<path d="M23.0701 19.6115L23.4052 22.3127C23.4521 22.6905 23.3232 23.069 23.056 23.3383L22.1471 24.2541C21.7912 24.6127 21.7629 25.1847 22.0816 25.5772L22.9354 26.6287C23.4585 27.273 24.0738 27.8352 24.7612 28.2969L25.9713 29.1098C26.3704 29.378 26.9036 29.3154 27.2309 28.962L28.1022 28.0214C28.2738 27.8361 28.5275 27.7521 28.7747 27.7989L31.697 28.351C32.0445 28.4166 32.2963 28.7224 32.2963 29.0786V31.5825C32.2963 31.9781 31.9902 32.3059 31.5977 32.2961C27.1253 32.1843 19.3502 29.1959 18.9636 19.7071C18.947 19.2986 19.2776 18.963 19.6834 18.963H22.3411C22.7116 18.963 23.0242 19.241 23.0701 19.6115Z" fill="white"/>
</svg>
