<svg width="16" height="16" viewBox="0 0 16 16" fill="none" xmlns="http://www.w3.org/2000/svg">
<path fill-rule="evenodd" clip-rule="evenodd" d="M13.3333 8.20953V12.9143C13.3333 13.5139 12.8393 14 12.2298 14H3.77007C3.16066 14 2.66663 13.5139 2.66663 12.9143V8.20953C2.66663 7.60991 3.16066 7.12382 3.77007 7.12382H4.3218V4.95239C4.3218 3.74604 5.05743 1.33334 7.99996 1.33334C10.9425 1.33334 11.6781 3.74604 11.6781 4.95239V7.12382H12.2298C12.8393 7.12382 13.3333 7.60991 13.3333 8.20953ZM10.2069 4.95239V7.12382H5.79306V4.95239C5.79306 4.22858 6.23444 2.78096 7.99996 2.78096C9.76548 2.78096 10.2069 4.22858 10.2069 4.95239Z" fill="white"/>
</svg>
